<svg width="14" height="14" viewBox="0 0 14 14" fill="none" xmlns="http://www.w3.org/2000/svg">
<path d="M10.9375 5.6875C10.9375 4.64321 10.5227 3.64169 9.78423 2.90327C9.04581 2.16484 8.04429 1.75 7 1.75C5.95571 1.75 4.95419 2.16484 4.21577 2.90327C3.47734 3.64169 3.0625 4.64321 3.0625 5.6875C3.0625 7.30275 4.35488 9.408 7 11.9297C9.64512 9.408 10.9375 7.30275 10.9375 5.6875ZM7 13.125C3.79137 10.2086 2.1875 7.72888 2.1875 5.6875C2.1875 4.41115 2.69453 3.18707 3.59705 2.28455C4.49957 1.38203 5.72365 0.875 7 0.875C8.27635 0.875 9.50043 1.38203 10.403 2.28455C11.3055 3.18707 11.8125 4.41115 11.8125 5.6875C11.8125 7.72888 10.2086 10.2086 7 13.125Z" fill="#0D0D0D" fill-opacity="0.53"/>
<path d="M7 7C7.3481 7 7.68194 6.86172 7.92808 6.61558C8.17422 6.36944 8.3125 6.0356 8.3125 5.6875C8.3125 5.3394 8.17422 5.00556 7.92808 4.75942C7.68194 4.51328 7.3481 4.375 7 4.375C6.6519 4.375 6.31806 4.51328 6.07192 4.75942C5.82578 5.00556 5.6875 5.3394 5.6875 5.6875C5.6875 6.0356 5.82578 6.36944 6.07192 6.61558C6.31806 6.86172 6.6519 7 7 7ZM7 7.875C6.41984 7.875 5.86344 7.64453 5.4532 7.2343C5.04297 6.82406 4.8125 6.26766 4.8125 5.6875C4.8125 5.10734 5.04297 4.55094 5.4532 4.1407C5.86344 3.73047 6.41984 3.5 7 3.5C7.58016 3.5 8.13656 3.73047 8.5468 4.1407C8.95703 4.55094 9.1875 5.10734 9.1875 5.6875C9.1875 6.26766 8.95703 6.82406 8.5468 7.2343C8.13656 7.64453 7.58016 7.875 7 7.875Z" fill="#0D0D0D" fill-opacity="0.53"/>
</svg>
